<svg id="b5b7e7a9-6c69-4d3e-80bc-55e354153c2a" data-name="Layer 1" xmlns="http://www.w3.org/2000/svg" viewBox="0 0 933.61 83.69"><defs><style>.aeb3e77e-3851-4d65-8e45-de3a1550896b{fill:#231f20;}.b27dfce9-22d5-4079-8f55-288b1e8d47ee{fill:#da1c5c;}</style></defs><title>name-logo</title><path class="aeb3e77e-3851-4d65-8e45-de3a1550896b" d="M-145.42,391.56a4.51,4.51,0,0,1,3.83,1.66,6.38,6.38,0,0,1,1.28,4v1.11h16.09a3.64,3.64,0,0,0,2.67-1.11,3.64,3.64,0,0,0,1.11-2.67v-4q0-3.78-3.78-3.78h-23.86a21.31,21.31,0,0,1-14.21-5.27q-6.21-5.26-6.21-14.49v-7a22.36,22.36,0,0,1,6.77-16.43,22.37,22.37,0,0,1,16.42-6.77h28.64a21.76,21.76,0,0,1,8.6,1.78,24.41,24.41,0,0,1,7.33,4.77,24.62,24.62,0,0,1,5.11,6.88,18,18,0,0,1,1.94,8.11,5.65,5.65,0,0,1-1.11,3.55,3.28,3.28,0,0,1-2.66,1.44h-20.87a4.84,4.84,0,0,1-3.83-1.44,5.18,5.18,0,0,1-1.28-3.55v-1h-13.21q-3.76,0-3.77,3.77v1.33q0,3.78,3.77,3.78h25.42a19.8,19.8,0,0,1,14.54,6,19.79,19.79,0,0,1,6,14.54v8.77A22.38,22.38,0,0,1-97.46,412a22.39,22.39,0,0,1-16.43,6.77H-147a22.82,22.82,0,0,1-9-1.78,25.38,25.38,0,0,1-7.38-4.66,21.17,21.17,0,0,1-4.94-6.6,17.18,17.18,0,0,1-1.78-7.5q0-6.65,3.78-6.65ZM-157.29,400q1.44,10.44,13.21,10.43h23.86a18.08,18.08,0,0,0,11.77-4.05q5-4,5-14.48v-.45q0-8.76-4.66-12.71t-12.32-3.94h-20.09q-6.43,0-9.27-2.77t-2.83-9.21V362q0-7,3.11-10.1t8.77-3.11h19.64q6,0,8.16,2.61a14.3,14.3,0,0,1,2.94,6.16h4a17.33,17.33,0,0,0-4-8.6q-3.16-3.62-11-3.61h-19.64q-7.11,0-11.38,4.16t-4.28,12.82v.45q0,15.42,15.88,15.43h20.09q13.2,0,13.21,13.2v.78q0,8.44-3.61,11.6a13.71,13.71,0,0,1-9.38,3.16h-23.86c-3.26,0-5.52-.62-6.78-1.88A9.27,9.27,0,0,1-153.3,400Z" transform="translate(170.06 -335.06)"/><path class="aeb3e77e-3851-4d65-8e45-de3a1550896b" d="M-22.54,336.83q3.76,0,3.77,3.78v4.66H-88.25v-4.66c0-2.52,1.25-3.78,3.77-3.78Zm-65.71,11.88H-55.4v70h-9.21c-2.52,0-3.77-1.26-3.77-3.77V357.37h-16.1a3.62,3.62,0,0,1-2.66-1.11,3.64,3.64,0,0,1-1.11-2.67Zm36.63,70v-70h32.85v4.88a3.64,3.64,0,0,1-1.11,2.67,3.63,3.63,0,0,1-2.66,1.11h-16.1V415c0,2.51-1.25,3.77-3.77,3.77Z" transform="translate(170.06 -335.06)"/><path class="aeb3e77e-3851-4d65-8e45-de3a1550896b" d="M51.61,410.2V415a3.79,3.79,0,0,1-3.78,3.77H-9.11c-2.52,0-3.77-1.26-3.77-3.77V340.61c0-2.52,1.25-3.78,3.77-3.78H46.94a3.79,3.79,0,0,1,3.78,3.78v4.66H1.88A2.06,2.06,0,0,0-.45,347.6v60.27a2.05,2.05,0,0,0,2.33,2.33ZM3.32,376V349.26a.49.49,0,0,1,.56-.55H50.72v4.88a3.79,3.79,0,0,1-3.78,3.78H15.64v10h27.2q3.77,0,3.77,3.77V376Zm43.29,3.44V384q0,3.76-3.77,3.77H15.64v10.55H47.83a3.79,3.79,0,0,1,3.78,3.77v4.66H3.88a.49.49,0,0,1-.56-.55V379.46Z" transform="translate(170.06 -335.06)"/><path class="aeb3e77e-3851-4d65-8e45-de3a1550896b" d="M72,418.75H63.37q-3.76,0-3.77-3.77V340.61q0-3.78,3.77-3.78H118.1a3.79,3.79,0,0,1,3.77,3.78v4.66H74.36A2.06,2.06,0,0,0,72,347.6Zm3.77-43V349.26a.49.49,0,0,1,.56-.55h45.51v4.88a3.79,3.79,0,0,1-3.77,3.78H88.9v10h26.53c2.52,0,3.77,1.26,3.77,3.77v4.66Zm43.4,3.44V384c0,2.51-1.25,3.77-3.77,3.77H88.9V415q0,3.76-3.77,3.77H75.8V379.23Z" transform="translate(170.06 -335.06)"/><path class="aeb3e77e-3851-4d65-8e45-de3a1550896b" d="M159.16,345.27a2.75,2.75,0,0,0-3,2.22l-22.54,71.26h-9.32c-1.85,0-2.77-.81-2.77-2.44a5.86,5.86,0,0,1,.22-1.33l23.64-74.37a4.88,4.88,0,0,1,5-3.78h31.3a4.87,4.87,0,0,1,5,3.78L210.34,415a4.1,4.1,0,0,1,.22,1.22c0,1.7-.93,2.55-2.78,2.55h-9.32l-22.53-71.26a2.76,2.76,0,0,0-3-2.22Zm35.52,73.48h-9.1a4.87,4.87,0,0,1-5-3.77l-2.22-7H153.73l-2.22,7a4.88,4.88,0,0,1-5,3.77h-9.1l6.1-19.42h45.07Zm-7.21-22.87H144.62l14.66-46.62a.78.78,0,0,1,.77-.55h12a.8.8,0,0,1,.78.55Zm-27.2-8.43h11.55l-3-9.33a60,60,0,0,1-1.94-10.65,105.41,105.41,0,0,1-.72-10.88h-.22a105.86,105.86,0,0,1-.73,10.88,60,60,0,0,1-1.94,10.65Z" transform="translate(170.06 -335.06)"/><path class="aeb3e77e-3851-4d65-8e45-de3a1550896b" d="M225.65,418.75h-7.1q-3.78,0-3.78-3.77V340.61q0-3.78,3.78-3.78h24.08c2.52,0,4.44,1.26,5.78,3.78l19.42,37a86.39,86.39,0,0,1,3.66,8.55,79,79,0,0,1,2.78,8.88h.22a87.11,87.11,0,0,1-1.66-9.22,71.49,71.49,0,0,1-.67-9.32V340.61q0-3.78,3.77-3.78H283v69.38a.49.49,0,0,1-.56.55h-8.1a1.62,1.62,0,0,1-1.33-.77l-30.86-58.61a3.5,3.5,0,0,0-3.44-2.11H228a2.06,2.06,0,0,0-2.33,2.33Zm58.83-8.55a2.05,2.05,0,0,0,2.33-2.33v-71h7.11q3.76,0,3.77,3.78V415q0,3.76-3.77,3.77H269.83a5.82,5.82,0,0,1-3.22-1.11,8,8,0,0,1-2.55-2.66l-19.43-37a85.15,85.15,0,0,1-3.66-8.54,81.14,81.14,0,0,1-2.78-8.88H238a87.23,87.23,0,0,1,1.67,9.21,73.15,73.15,0,0,1,.66,9.32V415q0,3.76-3.77,3.77h-7.1V349.26a.49.49,0,0,1,.55-.55h8a1.6,1.6,0,0,1,1.33.78l30.86,58.6a3.64,3.64,0,0,0,3.44,2.11Z" transform="translate(170.06 -335.06)"/><path class="aeb3e77e-3851-4d65-8e45-de3a1550896b" d="M346.2,360a23.11,23.11,0,0,1,23.2-23.2h34.41a20.28,20.28,0,0,1,20.42,20.43v5q0,3.22-3.77,3.22h-22.2q-3.78,0-3.78-3.22v-4.88H379.72c-2.52,0-3.77,1.26-3.77,3.77v33.41a3.77,3.77,0,0,0,3.77,3.78h14.76v-4.44q0-3.78,3.78-3.78h22.2q3.77,0,3.77,3.78v4.44a20.45,20.45,0,0,1-20.42,20.42H369.4a23.11,23.11,0,0,1-23.2-23.2ZM397,410.2a14.2,14.2,0,0,0,9.76-3.33,11.22,11.22,0,0,0,3.89-8.54H406.8a7.67,7.67,0,0,1-2.77,6,10,10,0,0,1-6.88,2.44H375.61A12.5,12.5,0,0,1,363,394.11V361.36a12.5,12.5,0,0,1,12.65-12.65H397a9.9,9.9,0,0,1,6.88,2.5,8,8,0,0,1,2.77,6.16h4a11.55,11.55,0,0,0-3.89-8.72,14.08,14.08,0,0,0-9.76-3.38H375.61a15.72,15.72,0,0,0-11.71,4.83,16,16,0,0,0-4.72,11.6v32.08a16,16,0,0,0,4.72,11.6,15.75,15.75,0,0,0,11.71,4.82Z" transform="translate(170.06 -335.06)"/><path class="aeb3e77e-3851-4d65-8e45-de3a1550896b" d="M445.1,418.75h-8.66q-3.78,0-3.78-3.77V340.61q0-3.78,3.78-3.78h48.17a23.77,23.77,0,0,1,16.49,6.05,19.45,19.45,0,0,1,6.71,15v12.77a31.52,31.52,0,0,1-2.11,11.54,27.81,27.81,0,0,1-5.66,9.21L511.59,415a3.78,3.78,0,0,1,.44,1.66c0,1.41-.78,2.11-2.33,2.11h-9.21l-14.77-30.3a12.87,12.87,0,0,0,6.61-4.78,13.44,13.44,0,0,0,2.5-8.1l-.12-16.09q-.1-6.78-4.88-10.49a18.2,18.2,0,0,0-11.54-3.72H447.43a2.06,2.06,0,0,0-2.33,2.33Zm33.19-70a14.7,14.7,0,0,1,9,2.72q3.66,2.71,3.66,8.05l.11,16.42c0,3.56-1.22,6.18-3.66,7.89a15.35,15.35,0,0,1-9,2.55H448.87V349.26a.49.49,0,0,1,.56-.55Zm18.09,70H487.5q-3.66,0-5.66-3.77l-8.22-16.65H461.19V415q0,3.76-3.77,3.77h-8.55v-29H478.4a18.86,18.86,0,0,0,3.66-.33Zm-35.19-41h12.88a3.79,3.79,0,0,0,3.77-3.77V361.14a3.79,3.79,0,0,0-3.77-3.77H461.19Z" transform="translate(170.06 -335.06)"/><path class="aeb3e77e-3851-4d65-8e45-de3a1550896b" d="M514.92,360a23.11,23.11,0,0,1,23.19-23.2h33.08a23.11,23.11,0,0,1,23.2,23.2v35.52a23.11,23.11,0,0,1-23.2,23.2H538.11a23.11,23.11,0,0,1-23.19-23.2ZM565,410.2a15.64,15.64,0,0,0,11.82-4.82,16.21,16.21,0,0,0,4.6-11.6V361.7a16.2,16.2,0,0,0-4.6-11.6A15.61,15.61,0,0,0,565,345.27H544.33a15.7,15.7,0,0,0-11.71,4.83,16,16,0,0,0-4.72,11.6v32.08a16,16,0,0,0,4.72,11.6,15.73,15.73,0,0,0,11.71,4.82Zm-20.65-3.44a11.93,11.93,0,0,1-9-3.83,12.77,12.77,0,0,1-3.66-9.15V361.7a12.78,12.78,0,0,1,3.66-9.16,12,12,0,0,1,9-3.83H565a12,12,0,0,1,9,3.83,12.78,12.78,0,0,1,3.66,9.16v32.08a12.77,12.77,0,0,1-3.66,9.15,11.93,11.93,0,0,1-9,3.83Zm.33-12.54a3.79,3.79,0,0,0,3.78,3.77h12.43a3.79,3.79,0,0,0,3.77-3.77v-33q0-3.76-3.77-3.77H548.44q-3.78,0-3.78,3.77Z" transform="translate(170.06 -335.06)"/><path class="aeb3e77e-3851-4d65-8e45-de3a1550896b" d="M630.13,398.33h16.1a3.79,3.79,0,0,0,3.77-3.78v-4q0-3.78-3.77-3.78H622.36a21.3,21.3,0,0,1-14.2-5.27q-6.23-5.26-6.22-14.49v-7a23.11,23.11,0,0,1,23.2-23.2h28.64a21.79,21.79,0,0,1,8.6,1.78,24.36,24.36,0,0,1,7.32,4.77,24.62,24.62,0,0,1,5.11,6.88,18,18,0,0,1,1.94,8.11,5.65,5.65,0,0,1-1.11,3.55,3.28,3.28,0,0,1-2.66,1.44H652.11a4.85,4.85,0,0,1-3.83-1.44,5.18,5.18,0,0,1-1.28-3.55v-1H633.8q-3.78,0-3.78,3.77v1.33q0,3.78,3.78,3.78h25.41a20.45,20.45,0,0,1,20.54,20.53v8.77a23.11,23.11,0,0,1-23.2,23.2H623.47a22.82,22.82,0,0,1-9-1.78,25.38,25.38,0,0,1-7.38-4.66,21.17,21.17,0,0,1-4.94-6.6,17.32,17.32,0,0,1-1.78-7.5q0-6.65,3.78-6.65H625a4.53,4.53,0,0,1,3.83,1.66,6.38,6.38,0,0,1,1.27,4Zm19.21-49.51q6,0,8.54,2.61a8.53,8.53,0,0,1,2.56,6.16v5.77h4v-5.77a11.71,11.71,0,0,0-3.61-8.6q-3.6-3.62-11.48-3.61H629.69q-7.11,0-11.38,4.16T614,362.36v.45q0,15.42,15.87,15.43H650q13.21,0,13.21,13.2v.78q0,8.44-3.61,11.6a13.69,13.69,0,0,1-9.38,3.16H626.36q-9.21,0-9.21-7v-8.43h-4V400q0,5.33,3.55,7.88c2.37,1.71,5.59,2.55,9.66,2.55h23.86A18.06,18.06,0,0,0,662,406.37q5-4,5-14.48v-.45q0-8.76-4.67-12.71T650,374.79H629.91q-6.43,0-9.27-2.77t-2.83-9.21V362q0-7,3.11-10.1t8.77-3.11Z" transform="translate(170.06 -335.06)"/><path class="aeb3e77e-3851-4d65-8e45-de3a1550896b" d="M713.94,398.33H730a3.79,3.79,0,0,0,3.78-3.78v-4q0-3.78-3.78-3.78H706.17A21.31,21.31,0,0,1,692,381.51q-6.23-5.26-6.22-14.49v-7a23.11,23.11,0,0,1,23.2-23.2h28.64a21.76,21.76,0,0,1,8.6,1.78,24.44,24.44,0,0,1,12.43,11.65,17.88,17.88,0,0,1,1.95,8.11,5.65,5.65,0,0,1-1.11,3.55,3.29,3.29,0,0,1-2.67,1.44H735.91a4.87,4.87,0,0,1-3.83-1.44,5.17,5.17,0,0,1-1.27-3.55v-1H717.6c-2.52,0-3.77,1.26-3.77,3.77v1.33c0,2.52,1.25,3.78,3.77,3.78H743a20.45,20.45,0,0,1,20.53,20.53v8.77a23.11,23.11,0,0,1-23.2,23.2H707.28a22.79,22.79,0,0,1-9-1.78,25.3,25.3,0,0,1-7.39-4.66,21.33,21.33,0,0,1-4.94-6.6,17.31,17.31,0,0,1-1.77-7.5q0-6.65,3.77-6.65h20.87a4.52,4.52,0,0,1,3.83,1.66,6.38,6.38,0,0,1,1.28,4Zm19.2-49.51c4,0,6.84.87,8.55,2.61a8.52,8.52,0,0,1,2.55,6.16v5.77h4v-5.77a11.75,11.75,0,0,0-3.61-8.6q-3.61-3.62-11.49-3.61H713.49c-4.73,0-8.53,1.39-11.37,4.16s-4.28,7-4.28,12.82v.45q0,15.42,15.87,15.43h20.1q13.2,0,13.2,13.2v.78q0,8.44-3.6,11.6A13.72,13.72,0,0,1,734,407H710.16q-9.21,0-9.21-7v-8.43h-4V400q0,5.33,3.56,7.88c2.36,1.71,5.58,2.55,9.65,2.55H734a18,18,0,0,0,11.76-4.05q5-4,5-14.48v-.45q0-8.76-4.66-12.71t-12.32-3.94h-20.1q-6.44,0-9.26-2.77t-2.83-9.21V362q0-7,3.1-10.1c2.07-2.07,5-3.11,8.77-3.11Z" transform="translate(170.06 -335.06)"/><path class="b27dfce9-22d5-4079-8f55-288b1e8d47ee" d="M-145.42,389.78a4.51,4.51,0,0,1,3.83,1.66,6.4,6.4,0,0,1,1.28,4v1.11h16.09a3.64,3.64,0,0,0,2.67-1.11,3.63,3.63,0,0,0,1.11-2.66v-4q0-3.76-3.78-3.77h-23.86a21.34,21.34,0,0,1-14.21-5.28q-6.21-5.26-6.21-14.48v-7a22.34,22.34,0,0,1,6.77-16.43,22.33,22.33,0,0,1,16.42-6.77h28.64a21.83,21.83,0,0,1,8.61,1.77,24.71,24.71,0,0,1,7.32,4.78,24.48,24.48,0,0,1,5.11,6.88,18,18,0,0,1,1.94,8.1,5.63,5.63,0,0,1-1.11,3.55,3.29,3.29,0,0,1-2.66,1.45h-20.87a4.84,4.84,0,0,1-3.83-1.45,5.16,5.16,0,0,1-1.28-3.55v-1h-13.21q-3.76,0-3.77,3.78v1.33q0,3.76,3.77,3.77h25.42a19.77,19.77,0,0,1,14.54,6,19.77,19.77,0,0,1,6,14.54v8.77a22.37,22.37,0,0,1-6.77,16.42A22.36,22.36,0,0,1-113.89,417H-147a23,23,0,0,1-9-1.77,25.59,25.59,0,0,1-7.38-4.66,21.33,21.33,0,0,1-4.94-6.61,17.14,17.14,0,0,1-1.78-7.49q0-6.66,3.78-6.66Zm-11.87,8.44q1.44,10.42,13.21,10.43h23.86a18.13,18.13,0,0,0,11.77-4q5-4.05,5-14.49v-.44q0-8.78-4.66-12.71T-120.44,373h-20.09q-6.43,0-9.27-2.78t-2.83-9.21v-.78q0-7,3.11-10.1t8.77-3.11h19.64q6,0,8.16,2.61a14.35,14.35,0,0,1,2.94,6.16h4a17.37,17.37,0,0,0-4-8.6q-3.16-3.6-11-3.61h-19.64q-7.11,0-11.38,4.17t-4.28,12.82V361q0,15.44,15.88,15.43h20.09q13.2,0,13.21,13.21v.78q0,8.43-3.61,11.6a13.76,13.76,0,0,1-9.38,3.16h-23.86q-4.89,0-6.78-1.89a9.27,9.27,0,0,1-2.44-5.1Z" transform="translate(170.06 -335.06)"/><path class="b27dfce9-22d5-4079-8f55-288b1e8d47ee" d="M-22.54,335.06q3.76,0,3.77,3.77v4.66H-88.25v-4.66q0-3.76,3.77-3.77Zm-65.71,11.87H-55.4v70h-9.21c-2.52,0-3.77-1.25-3.77-3.77V355.59h-16.1a3.62,3.62,0,0,1-2.66-1.11,3.63,3.63,0,0,1-1.11-2.66Zm36.63,70v-70h32.85v4.89a3.63,3.63,0,0,1-1.11,2.66,3.63,3.63,0,0,1-2.66,1.11h-16.1V413.2c0,2.52-1.25,3.77-3.77,3.77Z" transform="translate(170.06 -335.06)"/><path class="b27dfce9-22d5-4079-8f55-288b1e8d47ee" d="M51.61,408.43v4.77A3.79,3.79,0,0,1,47.83,417H-9.11c-2.52,0-3.77-1.25-3.77-3.77V338.83c0-2.51,1.25-3.77,3.77-3.77H46.94a3.79,3.79,0,0,1,3.78,3.77v4.66H1.88a2.06,2.06,0,0,0-2.33,2.33V406.1a2.06,2.06,0,0,0,2.33,2.33ZM3.32,374.24V347.49a.5.5,0,0,1,.56-.56H50.72v4.89a3.79,3.79,0,0,1-3.78,3.77H15.64v10h27.2q3.77,0,3.77,3.78v4.88Zm43.29,3.44v4.55q0,3.78-3.77,3.78H15.64v10.54H47.83a3.79,3.79,0,0,1,3.78,3.77V405H3.88a.5.5,0,0,1-.56-.56V377.68Z" transform="translate(170.06 -335.06)"/><path class="b27dfce9-22d5-4079-8f55-288b1e8d47ee" d="M72,417H63.37c-2.51,0-3.77-1.25-3.77-3.77V338.83q0-3.76,3.77-3.77H118.1a3.79,3.79,0,0,1,3.77,3.77v4.66H74.36A2.06,2.06,0,0,0,72,345.82Zm3.77-43V347.49a.5.5,0,0,1,.56-.56h45.51v4.89a3.79,3.79,0,0,1-3.77,3.77H88.9v10h26.53q3.78,0,3.78,3.78V374Zm43.41,3.44v4.77q0,3.78-3.78,3.78H88.9V413.2c0,2.52-1.26,3.77-3.77,3.77H75.8V377.46Z" transform="translate(170.06 -335.06)"/><path class="b27dfce9-22d5-4079-8f55-288b1e8d47ee" d="M159.16,343.49a2.75,2.75,0,0,0-3,2.22L133.63,417h-9.32c-1.85,0-2.77-.81-2.77-2.44a5.94,5.94,0,0,1,.22-1.33l23.64-74.37a4.88,4.88,0,0,1,5-3.77h31.3a4.87,4.87,0,0,1,5,3.77l23.65,74.37a4.1,4.1,0,0,1,.22,1.22c0,1.71-.93,2.55-2.78,2.55h-9.32l-22.53-71.26a2.76,2.76,0,0,0-3-2.22ZM194.68,417h-9.1a4.86,4.86,0,0,1-5-3.77l-2.22-7H153.73l-2.22,7a4.87,4.87,0,0,1-5,3.77h-9.1l6.1-19.42h45.07Zm-7.21-22.86H144.62l14.66-46.62a.78.78,0,0,1,.77-.56h12a.8.8,0,0,1,.78.56Zm-27.2-8.44h11.55l-3-9.32a60.29,60.29,0,0,1-1.94-10.66,105.24,105.24,0,0,1-.72-10.88h-.22a105.68,105.68,0,0,1-.73,10.88,59.39,59.39,0,0,1-1.94,10.66Z" transform="translate(170.06 -335.06)"/><path class="b27dfce9-22d5-4079-8f55-288b1e8d47ee" d="M225.65,417h-7.1c-2.52,0-3.78-1.25-3.78-3.77V338.83q0-3.76,3.78-3.77h24.08c2.52,0,4.44,1.26,5.78,3.77l19.42,37a86.39,86.39,0,0,1,3.66,8.55,79,79,0,0,1,2.78,8.88h.22a87.37,87.37,0,0,1-1.66-9.21,71.63,71.63,0,0,1-.67-9.33V338.83q0-3.76,3.77-3.77H283v69.37a.5.5,0,0,1-.56.56h-8.1a1.6,1.6,0,0,1-1.33-.78L242.19,345.6a3.51,3.51,0,0,0-3.44-2.11H228a2.06,2.06,0,0,0-2.33,2.33Zm58.83-8.54a2.06,2.06,0,0,0,2.33-2.33v-71h7.11q3.76,0,3.77,3.77V413.2c0,2.52-1.26,3.77-3.77,3.77H269.83a5.82,5.82,0,0,1-3.22-1.11,7.78,7.78,0,0,1-2.55-2.66l-19.43-37a86.39,86.39,0,0,1-3.66-8.55,81.14,81.14,0,0,1-2.78-8.88H238a87.23,87.23,0,0,1,1.67,9.21,73.42,73.42,0,0,1,.66,9.33V413.2c0,2.52-1.26,3.77-3.77,3.77h-7.1V347.49a.49.49,0,0,1,.55-.56h8a1.6,1.6,0,0,1,1.33.78l30.86,58.61a3.66,3.66,0,0,0,3.44,2.11Z" transform="translate(170.06 -335.06)"/><path class="b27dfce9-22d5-4079-8f55-288b1e8d47ee" d="M346.2,358.26a23.11,23.11,0,0,1,23.2-23.2h34.41a20.27,20.27,0,0,1,20.42,20.42v5q0,3.21-3.77,3.21h-22.2q-3.78,0-3.78-3.21v-4.89H379.72q-3.78,0-3.78,3.78v33.41a3.79,3.79,0,0,0,3.78,3.77h14.76v-4.44q0-3.76,3.78-3.77h22.2q3.77,0,3.77,3.77v4.44A20.45,20.45,0,0,1,403.81,417H369.4a23.11,23.11,0,0,1-23.2-23.19ZM397,408.43a14.21,14.21,0,0,0,9.77-3.33,11.24,11.24,0,0,0,3.89-8.55H406.8a7.65,7.65,0,0,1-2.77,6,10,10,0,0,1-6.88,2.45H375.61A12.52,12.52,0,0,1,363,392.33V359.59a12.52,12.52,0,0,1,12.65-12.66H397a10,10,0,0,1,6.89,2.5,8,8,0,0,1,2.77,6.16h4a11.53,11.53,0,0,0-3.89-8.71,14.05,14.05,0,0,0-9.77-3.39H375.61a15.72,15.72,0,0,0-11.71,4.83,16,16,0,0,0-4.72,11.6V392a16,16,0,0,0,4.72,11.6,15.72,15.72,0,0,0,11.71,4.83Z" transform="translate(170.06 -335.06)"/><path class="b27dfce9-22d5-4079-8f55-288b1e8d47ee" d="M445.1,417h-8.66c-2.52,0-3.78-1.25-3.78-3.77V338.83q0-3.76,3.78-3.77h48.17a23.73,23.73,0,0,1,16.49,6.05,19.42,19.42,0,0,1,6.71,15v12.76a31.61,31.61,0,0,1-2.11,11.55,28,28,0,0,1-5.66,9.21l11.55,23.53a3.82,3.82,0,0,1,.44,1.67c0,1.4-.78,2.1-2.33,2.1h-9.21l-14.77-30.3a12.9,12.9,0,0,0,6.61-4.77,13.45,13.45,0,0,0,2.49-8.1l-.11-16.1q-.1-6.76-4.88-10.49a18.2,18.2,0,0,0-11.54-3.72H447.43a2.06,2.06,0,0,0-2.33,2.33Zm33.19-70a14.7,14.7,0,0,1,9,2.72q3.66,2.73,3.66,8.05l.11,16.43q0,5.33-3.66,7.88a15.35,15.35,0,0,1-9,2.55H448.87V347.49a.49.49,0,0,1,.56-.56Zm18.09,70H487.5c-2.44,0-4.33-1.25-5.66-3.77l-8.22-16.65H461.19V413.2c0,2.52-1.26,3.77-3.77,3.77h-8.55V388H478.4a18.86,18.86,0,0,0,3.66-.33Zm-35.19-41h12.88a3.79,3.79,0,0,0,3.77-3.78V359.37a3.79,3.79,0,0,0-3.77-3.78H461.19Z" transform="translate(170.06 -335.06)"/><path class="b27dfce9-22d5-4079-8f55-288b1e8d47ee" d="M514.92,358.26a23.11,23.11,0,0,1,23.19-23.2h33.08a23.11,23.11,0,0,1,23.2,23.2v35.52A23.11,23.11,0,0,1,571.19,417H538.11a23.11,23.11,0,0,1-23.19-23.19ZM565,408.43a15.61,15.61,0,0,0,11.82-4.83,16.21,16.21,0,0,0,4.6-11.6V359.92a16.21,16.21,0,0,0-4.6-11.6A15.61,15.61,0,0,0,565,343.49H544.33a15.7,15.7,0,0,0-11.71,4.83,16,16,0,0,0-4.72,11.6V392a16,16,0,0,0,4.72,11.6,15.7,15.7,0,0,0,11.71,4.83ZM544.33,405a12,12,0,0,1-9-3.83,12.81,12.81,0,0,1-3.66-9.16V359.92a12.81,12.81,0,0,1,3.66-9.16,12,12,0,0,1,9-3.83H565a12,12,0,0,1,9,3.83,12.81,12.81,0,0,1,3.66,9.16V392a12.81,12.81,0,0,1-3.66,9.16,12,12,0,0,1-9,3.83Zm.33-12.55a3.79,3.79,0,0,0,3.78,3.78h12.43a3.79,3.79,0,0,0,3.77-3.78v-33q0-3.78-3.77-3.78H548.44q-3.78,0-3.78,3.78Z" transform="translate(170.06 -335.06)"/><path class="b27dfce9-22d5-4079-8f55-288b1e8d47ee" d="M630.13,396.55h16.1a3.79,3.79,0,0,0,3.77-3.77v-4q0-3.76-3.77-3.77H622.36a21.34,21.34,0,0,1-14.21-5.28q-6.21-5.26-6.21-14.48v-7a23.11,23.11,0,0,1,23.2-23.2h28.64a21.82,21.82,0,0,1,8.6,1.77,24.62,24.62,0,0,1,12.43,11.66,18,18,0,0,1,1.94,8.1,5.63,5.63,0,0,1-1.11,3.55,3.29,3.29,0,0,1-2.66,1.45H652.11a4.86,4.86,0,0,1-3.83-1.45,5.16,5.16,0,0,1-1.28-3.55v-1H633.8q-3.78,0-3.78,3.78v1.33q0,3.76,3.78,3.77h25.41A20.47,20.47,0,0,1,679.75,385v8.77A23.11,23.11,0,0,1,656.55,417H623.47a23,23,0,0,1-9-1.77,25.59,25.59,0,0,1-7.38-4.66,21.33,21.33,0,0,1-4.94-6.61,17.28,17.28,0,0,1-1.78-7.49q0-6.66,3.78-6.66H625a4.53,4.53,0,0,1,3.83,1.66,6.4,6.4,0,0,1,1.27,4ZM649.34,347q6,0,8.54,2.61a8.54,8.54,0,0,1,2.56,6.16v5.78h4v-5.78a11.73,11.73,0,0,0-3.61-8.6q-3.6-3.6-11.48-3.61H629.69q-7.11,0-11.38,4.17T614,360.59V361q0,15.44,15.87,15.43H650q13.21,0,13.21,13.21v.78q0,8.43-3.61,11.6a13.74,13.74,0,0,1-9.38,3.16H626.36q-9.21,0-9.21-7v-8.44h-4v8.44c0,3.55,1.18,6.17,3.55,7.88s5.59,2.55,9.66,2.55h23.86a18.11,18.11,0,0,0,11.77-4q5-4.05,5-14.49v-.44q0-8.78-4.66-12.71T650,373H629.91q-6.43,0-9.27-2.78T617.81,361v-.78q0-7,3.11-10.1t8.77-3.11Z" transform="translate(170.06 -335.06)"/><path class="b27dfce9-22d5-4079-8f55-288b1e8d47ee" d="M713.94,396.55H730a3.81,3.81,0,0,0,3.78-3.77v-4q0-3.76-3.78-3.77H706.17A21.32,21.32,0,0,1,692,379.73q-6.23-5.26-6.22-14.48v-7a23.11,23.11,0,0,1,23.2-23.2h28.64a21.74,21.74,0,0,1,8.6,1.77,24.63,24.63,0,0,1,7.33,4.78,24.25,24.25,0,0,1,5.1,6.88,17.84,17.84,0,0,1,1.95,8.1,5.63,5.63,0,0,1-1.11,3.55,3.3,3.3,0,0,1-2.67,1.45H735.91a4.87,4.87,0,0,1-3.83-1.45,5.15,5.15,0,0,1-1.27-3.55v-1H717.6c-2.52,0-3.77,1.26-3.77,3.78v1.33c0,2.51,1.25,3.77,3.77,3.77H743A20.47,20.47,0,0,1,763.55,385v8.77A23.11,23.11,0,0,1,740.35,417H707.28a23,23,0,0,1-9-1.77,25.51,25.51,0,0,1-7.39-4.66,21.49,21.49,0,0,1-4.94-6.61,17.27,17.27,0,0,1-1.77-7.49q0-6.66,3.77-6.66h20.87a4.52,4.52,0,0,1,3.83,1.66,6.4,6.4,0,0,1,1.28,4ZM733.14,347c4,0,6.84.87,8.55,2.61a8.53,8.53,0,0,1,2.55,6.16v5.78h4v-5.78a11.76,11.76,0,0,0-3.6-8.6q-3.61-3.6-11.49-3.61H713.49q-7.1,0-11.38,4.17t-4.27,12.82V361q0,15.44,15.87,15.43h20.1q13.2,0,13.2,13.21v.78q0,8.43-3.6,11.6a13.77,13.77,0,0,1-9.38,3.16H710.16q-9.21,0-9.21-7v-8.44h-4v8.44c0,3.55,1.19,6.17,3.56,7.88s5.58,2.55,9.65,2.55H734a18.1,18.1,0,0,0,11.76-4q5-4.05,5-14.49v-.44q0-8.78-4.66-12.71T733.81,373h-20.1q-6.44,0-9.26-2.78T701.62,361v-.78q0-7,3.1-10.1c2.07-2.07,5-3.11,8.77-3.11Z" transform="translate(170.06 -335.06)"/></svg>